PathFileType	4	(X/Y/Z)	T1_P1_NoVision_NoMovement_4_0-615.trc
DataRate	CameraRate	NumFrames	NumMarkers	Units	OrigDataRate	OrigDataStartFrame	OrigNumFrames
60	60	4	27	m	60	153	615
Frame#	Time	RHip			RKnee			RAnkle			RBigToe			RSmallToe			RHeel			LHip			LKnee			LAnkle			LBigToe			LSmallToe			LHeel			Neck			Head			Nose			RShoulder			RElbow			RWrist			RThumb			RIndex			RPinky			LShoulder			LElbow			LWrist			LThumb			LIndex			LPinky		
		X1	Y1	Z1	X2	Y2	Z2	X3	Y3	Z3	X4	Y4	Z4	X5	Y5	Z5	X6	Y6	Z6	X7	Y7	Z7	X8	Y8	Z8	X9	Y9	Z9	X10	Y10	Z10	X11	Y11	Z11	X12	Y12	Z12	X13	Y13	Z13	X14	Y14	Z14	X15	Y15	Z15	X16	Y16	Z16	X17	Y17	Z17	X18	Y18	Z18	X19	Y19	Z19	X20	Y20	Z20	X21	Y21	Z21	X22	Y22	Z22	X23	Y23	Z23	X24	Y24	Z24	X25	Y25	Z25	X26	Y26	Z26	X27	Y27	Z27
154	2.566666666666667	-65.8311195145618	3763.0642600997116	-539.6961422530111	293.52588273692743	3875.782409841767	-544.2893213580663	656.5462601056361	4185.687540666276	-597.2173746531445	701.84329031077	3970.1058465884516	-494.54346891123964	721.3459971461358	4034.3665450917574	-597.5442045939944	686.5569715541658	4204.553352079218	-572.3562043897516	-100.6914753338418	3905.2905134906946	-363.8210075515479	241.76030918114785	3985.7424895366385	-355.54458044370443	586.466094837978	4197.87330595398	-384.422260402132	677.8155162580799	4134.682255629887	-330.1307180710847	635.4186445019272	4140.523426102296	-293.6544727789736	622.4792720094375	4244.274146193328	-416.54037482063256	-667.3080154749243	3673.1348616672904	-484.77619664616464	-910.2612149743325	3541.043726441373	-431.9261380556752	-754.9050494717139	3560.4715784555833	-404.0224120055192	-558.8838213059681	3652.788628429473	-644.6493009672903	-296.0237042081939	3748.5154741772217	-705.2676351644088	-42.93925381313726	3663.850132708609	-614.9197775674531	71.6733682320866	3782.4586645461254	-573.4306360325419	88.83197145128388	3764.886176202612	-586.8680398589377	84.24080482980065	3695.8298184132937	-586.2292259492676	-606.5615933721823	3764.9805459622685	-348.44630855063195	-390.5339512758917	3980.4118694553576	-340.478305134466	-126.38360451811437	3977.9342527355366	-300.3553649333922	10.916470275284684	3929.155998260296	-320.39565322224416	27.49814835770401	3925.857781326328	-281.35218053374757	1.5919821324671268	3990.5598208021747	-246.65780652517495
155	2.583333333333333	-65.9689549289944	3770.310641584617	-541.5169278406363	294.2428665548525	3876.61131835637	-544.7740208335999	657.963782149625	4189.011223734327	-598.7049688694343	703.5635282483017	3968.313067046632	-498.1134251086521	722.4516769225877	4035.0279804671623	-597.9456830912895	689.1715387146199	4208.116968040483	-574.8878014739995	-101.49197183170106	3905.071944413519	-363.1690540109017	241.24489083388488	3982.895169319332	-355.06774941113525	585.2449554989597	4195.185540714687	-383.0466263091526	676.522628203844	4131.771323580081	-328.58519716594077	634.8577271100229	4137.635602390589	-292.15393954663324	622.3429404597695	4237.801745454967	-414.5149933009044	-667.4113100892584	3673.160346180539	-484.8024762946082	-908.6325304551176	3541.298941936128	-431.7897626730578	-756.1625375044358	3560.0880434979954	-403.9693500325393	-558.885530463659	3652.7963049605733	-644.6525646329284	-296.9684809383852	3748.2286638997875	-705.2144415555495	-42.48949235324784	3663.9933205170755	-614.8611648132634	70.91275106520894	3775.914899434885	-571.6619060252353	88.96063055716903	3760.2704162643477	-584.535565585815	84.21845444941823	3693.305776274182	-585.6173025872141	-606.5648233581845	3765.0474999713474	-348.4699879368943	-389.9074380704927	3981.4958456843574	-342.2483409187918	-126.30888394270222	3977.7570191956406	-300.1335637655844	11.010453382512805	3929.123892605064	-320.40027074684036	27.040015598626244	3925.1751257489323	-281.4229955790889	1.5825078240502215	3990.6343879708584	-246.9005358743235
156	2.6	-66.13721664292525	3780.2613204239788	-544.0506932632579	295.28210871451057	3879.1669022768847	-546.4838358273287	658.0420773863298	4185.939719864491	-595.7514380448396	706.2857111569425	3963.5951933465276	-498.6699397047149	725.0194751102865	4036.5761011497934	-598.807438926413	690.6700022217449	4206.259777704787	-573.329382676317	-102.09025400909326	3904.8140698743655	-361.74660256715117	240.31513445917594	3982.1584657913922	-355.0161857908104	585.4366846668294	4192.335025114494	-380.77953980973297	677.2999452256681	4132.205146867011	-328.40805381450286	635.1552963218053	4137.533512682749	-291.6081736418038	621.7911084885	4232.301943844965	-411.7841901894233	-667.3813874805942	3673.2802133847035	-484.85576209998027	-907.400428979842	3541.4865394301787	-431.6737886014273	-757.3087168653484	3559.785264014711	-403.9689300111503	-558.9020249671823	3652.794233787923	-644.6345581364485	-299.1333185306443	3747.5027749683572	-705.0069638622781	-41.61443150375853	3664.3483811676397	-614.7686416996639	70.84174805305788	3776.2169930768127	-571.652022480822	89.49645742004418	3756.9496185770845	-581.8798188837058	84.31991264535345	3695.5631174112505	-586.1626256441156	-606.5791514127892	3765.1552437491023	-348.5223757842314	-389.8516516195609	3981.716713998983	-342.28131386537416	-125.78927546760296	3977.6863805668354	-299.6964599804239	10.915255795725951	3928.8897288767976	-320.3327802768947	27.393383391277727	3921.7072979924424	-280.73394110681784	1.6540818468617304	3990.8221281639853	-247.6507130351658
157	2.6166666666666667	-66.25961291451397	3788.2223760522743	-546.0899172210246	295.62848690776497	3882.5163307246103	-548.8826200612291	656.8080446725364	4178.682432146981	-590.124135432075	709.1318702292547	3960.7014656687725	-497.02732653168425	728.2305801683324	4038.311882693647	-599.702771985431	690.8655108924563	4201.155794512436	-568.9008827155993	-102.44638998432795	3904.5093764527164	-360.16640673543344	239.45080494530347	3982.3419234459966	-355.1185047696004	586.4934317392388	4191.455986034184	-379.50790116371627	679.1388204096971	4135.30322210216	-329.68478561662374	635.9669557006952	4138.693971886194	-291.4069697666066	620.5725786051576	4231.186344445559	-410.14170973346825	-666.9198384633985	3673.541138356184	-484.8894997932955	-906.9161829024208	3541.566625462054	-431.6073804102122	-757.2656273195216	3559.8850105733914	-404.04461152549214	-558.9241476971815	3652.78249116785	-644.5962265495772	-301.20985663481724	3746.8211170136424	-704.7986647708351	-40.74838273072826	3664.7968626831384	-614.7328389254244	71.0563027060673	3783.035278346024	-573.3285779891834	90.31418495968708	3755.5793093590664	-580.2135044360224	84.45648218266174	3700.2677436123713	-587.3020977029113	-606.5986809356955	3765.2669867220275	-348.57956164460114	-389.8607555809149	3981.3750681087486	-340.7123354777007	-125.41501934280288	3977.5258857751364	-299.2300564652253	10.398294967184817	3928.3366292409423	-320.1319816986668	28.158187747090977	3914.9967690226567	-279.31857143937134	1.950271275630472	3991.164173423931	-248.78200510108158
